# xmcd
#
# Track frame offsets:
#	150
#	12918
#	26638
#	44813
#	60323
#	76310
#	87459
#	105859
#	119418
#	134756
#	159592
#
# Disc length: 2356 seconds
#
# Revision: 1
# Processed by: cddbd v1.5.1PL0 Copyright (c) Steve Scherf et al.
# Submitted via: audiograbber 1.83.01
#
DISCID=8c09320b
DTITLE=Double Scale - Archive 3
DYEAR=1900
DGENRE=
TTITLE0=Los Lobos - Don't Worry Baby
TTITLE1=Los Lobos - I Walk Alone
TTITLE2=Los Lobos - I Can't Understand
TTITLE3=Robert Cray Band - 24/7 Man
TTITLE4=Robert Cray Band - At Last
TTITLE5=Savoy Brown - Hold On I'm Coming
TTITLE6=Savoy Brown - Street Corner Talking
TTITLE7=Savoy Brown - Made Up My Mind
TTITLE8=Savoy Brown - I'm Tired
TTITLE9=Sheryl Crow - Keep On Growing
TTITLE10=Susan Tedeschi - Little By Little
EXTD=Compilation
EXTT0=
EXTT1=
EXTT2=
EXTT3=
EXTT4=
EXTT5=
EXTT6=
EXTT7=
EXTT8=
EXTT9=
EXTT10=
PLAYORDER=
